<svg width="20" height="20" viewBox="0 0 20 20" fill="none" xmlns="http://www.w3.org/2000/svg">
<path fill-rule="evenodd" clip-rule="evenodd" d="M7.35028 10.002L0.548832 3.20054C-0.182944 2.4688 -0.182944 1.28061 0.548832 0.548834C1.28061 -0.182942 2.4688 -0.182942 3.20054 0.548834L9.99797 7.34626L16.7727 0.550865C17.5033 -0.182043 18.6915 -0.18384 19.4244 0.546803C20.1573 1.27745 20.1591 2.46564 19.4285 3.19855L12.6497 9.99797L19.4512 16.7995C20.1829 17.5312 20.1829 18.7194 19.4512 19.4512C18.7194 20.1829 17.5312 20.1829 16.7995 19.4512L10.002 12.6537L3.22729 19.4491C2.49665 20.182 1.30846 20.1838 0.57559 19.4532C-0.157318 18.7226 -0.159115 17.5344 0.571527 16.8015L7.35028 10.002Z" fill="#EC4235"/>
</svg>
