<svg width="22" height="22" viewBox="0 0 22 22" fill="none" xmlns="http://www.w3.org/2000/svg">
<path d="M6.72396 0H2.73939C1.22647 0 0 1.22648 0 2.73942V6.72403C0 8.23697 1.22647 9.46345 2.73939 9.46345H6.72396C8.23688 9.46345 9.46335 8.23697 9.46335 6.72403V2.73942C9.46335 1.22648 8.23688 0 6.72396 0Z" fill="#007ACC"/>
<path d="M18.6777 0H14.6931C13.1802 0 11.9537 1.22648 11.9537 2.73942V6.72403C11.9537 8.23697 13.1802 9.46345 14.6931 9.46345H18.6777C20.1906 9.46345 21.4171 8.23697 21.4171 6.72403V2.73942C21.4171 1.22648 20.1906 0 18.6777 0Z" fill="#007ACC"/>
<path d="M6.72396 11.9539H2.73939C1.22647 11.9539 0 13.1803 0 14.6933V18.6779C0 20.1908 1.22647 21.4173 2.73939 21.4173H6.72396C8.23688 21.4173 9.46335 20.1908 9.46335 18.6779V14.6933C9.46335 13.1803 8.23688 11.9539 6.72396 11.9539Z" fill="#007ACC"/>
<path d="M17.9179 11.8808C17.5906 11.5547 17.1474 11.3716 16.6853 11.3716C16.2233 11.3716 15.7801 11.5547 15.4528 11.8808L11.8807 15.453C11.5541 15.78 11.3707 16.2233 11.3707 16.6855C11.3707 17.1477 11.5541 17.591 11.8807 17.9181L15.4528 21.4902C15.78 21.8166 16.2232 22 16.6853 22C17.1475 22 17.5907 21.8166 17.9179 21.4902L21.49 17.9181C21.8165 17.591 22 17.1477 22 16.6855C22 16.2233 21.8165 15.78 21.49 15.453L17.9179 11.8808Z" fill="#007ACC"/>
</svg>
