<svg width="14" height="15" viewBox="0 0 14 15" fill="none" xmlns="http://www.w3.org/2000/svg">
<path d="M8.33609 0.997429V1.5246H5.16466V0.998053L8.33609 0.997429ZM8.81995 0L4.68012 0.000625458H4.67951C4.41238 0.000625458 4.19566 0.223868 4.19566 0.499028V1.52458H0.484464C0.216728 1.52458 0 1.74783 0 2.02361V3.55946C0 3.83525 0.216728 4.05849 0.484464 4.05849H13.0155C13.1442 4.05849 13.2675 4.00596 13.3579 3.91216C13.449 3.81898 13.5 3.69204 13.5 3.55947V2.02299C13.5 1.89104 13.449 1.7641 13.3579 1.6703C13.2675 1.57713 13.1442 1.5246 13.0155 1.5246H9.30435V0.49904C9.30435 0.366468 9.25336 0.239522 9.16229 0.14635C9.07183 0.0525485 8.94865 0 8.81995 0ZM9.65107 6.77365C9.9182 6.77365 10.1349 6.99689 10.1349 7.27267V12.0303C10.1349 12.3055 9.9182 12.5287 9.65107 12.5287C9.38334 12.5287 9.16661 12.3055 9.16661 12.0303V7.27267C9.16661 6.99751 9.38334 6.77427 9.65047 6.77427H9.65107L9.65107 6.77365ZM3.84906 6.77365C4.1168 6.77365 4.33353 6.99689 4.33353 7.27267V12.0303C4.33353 12.3055 4.1168 12.5287 3.84906 12.5287C3.58193 12.5287 3.3652 12.3055 3.3652 12.0303V7.27267C3.3652 6.99751 3.58193 6.77427 3.84906 6.77427V6.77365ZM6.75038 6.77365C7.01751 6.77365 7.23424 6.99689 7.23424 7.27267V12.0303C7.23424 12.3055 7.01751 12.5287 6.75038 12.5287C6.48264 12.5287 6.26591 12.3055 6.26591 12.0303V7.27267C6.26591 6.99751 6.48264 6.77427 6.74977 6.77427H6.75038L6.75038 6.77365ZM1.50694 4.45989V4.46052H1.50572C1.37762 4.46052 1.25499 4.51305 1.16453 4.60622C1.07347 4.70003 1.02248 4.82697 1.02248 4.95891V14.5016C1.02248 14.6336 1.07347 14.7605 1.16453 14.8543C1.25499 14.9475 1.37823 15 1.50693 15H11.994C12.2611 15 12.4778 14.7768 12.4778 14.501V4.95892C12.4778 4.68376 12.2611 4.46052 11.994 4.46052L1.50694 4.45989Z" fill="#DDDDDD"/>
</svg>
