<svg width="82" height="100" viewBox="0 0 82 100" fill="none" xmlns="http://www.w3.org/2000/svg">
<path fill-rule="evenodd" clip-rule="evenodd" d="M6.61625 70.222H35.9846C36.5399 70.222 36.9267 70.7609 36.7496 71.2858C34.2798 78.6159 35.2512 86.7023 39.3954 93.2284C39.7366 93.7662 39.352 94.466 38.7141 94.466H13.6563C6.13054 94.466 0 88.3344 0 80.8086V27.2213C0 19.6955 6.13054 13.5639 13.6563 13.5639H54.5066C62.0334 13.5639 68.164 19.6955 68.164 27.2213V53.7743C68.164 54.2991 67.6772 54.6816 67.1665 54.5577C65.8148 54.2274 64.4315 54.0079 63.0277 53.9003C62.6072 53.8677 62.2823 53.5189 62.2823 53.0962V27.2213C62.2823 22.9434 58.7867 19.4467 54.5077 19.4467H13.6563C9.37728 19.4467 5.8828 22.9434 5.8828 27.2213V69.4874C5.8828 69.8928 6.21204 70.222 6.61625 70.222ZM61.0686 58.9725C49.7398 58.9725 40.5548 68.1575 40.5548 79.4863C40.5548 90.8151 49.7398 100 61.0686 100C72.3973 100 81.5823 90.8161 81.5823 79.4863C81.5823 68.1564 72.3973 58.9725 61.0686 58.9725ZM52.3617 75.5104L55.7682 78.9158C56.0811 79.2298 56.0811 79.7416 55.7682 80.0556L52.3617 83.4621C51.0556 84.7682 51.0556 86.887 52.3617 88.1931C53.6678 89.4992 55.7856 89.4992 57.0916 88.1931L60.4981 84.7867C60.8121 84.4715 61.325 84.4715 61.6379 84.7867L65.0444 88.1931C66.3505 89.4992 68.4682 89.4992 69.7754 88.1931C71.0815 86.887 71.0815 84.7693 69.7754 83.4621L66.37 80.0556C66.056 79.7416 66.056 79.2298 66.37 78.9158L69.7754 75.5093C71.0815 74.2033 71.0815 72.0855 69.7754 70.7794C68.4693 69.4733 66.3516 69.4733 65.0444 70.7794L61.6379 74.1848C61.325 74.4988 60.8121 74.4988 60.4981 74.1848L57.0916 70.7794C55.7856 69.4733 53.6678 69.4733 52.3617 70.7794C51.0556 72.0855 51.0556 74.2043 52.3617 75.5104ZM22.0165 8.70576H46.1442C46.6289 8.70576 47.0005 8.28851 46.9451 7.80824C46.4441 3.42602 42.6987 0 38.1904 0H29.9693C25.461 0 21.7166 3.42602 21.2146 7.80824C21.1592 8.28851 21.533 8.70576 22.0165 8.70576Z" fill="#373737" fill-opacity="0.15"/>
</svg>
