<svg width="20" height="20" viewBox="0 0 20 20" fill="none" xmlns="http://www.w3.org/2000/svg">
<path d="M13.1042 11.2708L12.1875 10.3542C12.5487 9.36805 12.3612 8.5486 11.625 7.89582C10.8889 7.24305 10.0903 7.07638 9.22921 7.39582L8.31254 6.47916C8.54865 6.32638 8.81254 6.21527 9.10421 6.14582C9.39587 6.07638 9.69448 6.04166 10 6.04166C10.9862 6.04166 11.823 6.38541 12.5105 7.07291C13.198 7.76041 13.5417 8.59721 13.5417 9.58332C13.5417 9.88888 13.5035 10.191 13.4271 10.4896C13.3507 10.7882 13.2431 11.0486 13.1042 11.2708ZM15.7917 13.9583L14.9584 13.125C15.6389 12.625 16.2327 12.066 16.7396 11.4479C17.2466 10.8299 17.6181 10.2083 17.8542 9.58332C17.1598 8.04166 16.1181 6.82291 14.7292 5.92707C13.3403 5.03124 11.8334 4.58332 10.2084 4.58332C9.62504 4.58332 9.02782 4.63888 8.41671 4.74999C7.8056 4.8611 7.32643 4.99305 6.97921 5.14582L6.02087 4.16666C6.50698 3.94443 7.12851 3.74999 7.88546 3.58332C8.6424 3.41666 9.38198 3.33332 10.1042 3.33332C12.0903 3.33332 13.9063 3.8993 15.5521 5.03124C17.198 6.16318 18.4028 7.68055 19.1667 9.58332C18.8056 10.4722 18.3403 11.2847 17.7709 12.0208C17.2014 12.7569 16.5417 13.4028 15.7917 13.9583ZM17 18.6667L13.5 15.2292C13.0139 15.4236 12.4653 15.5729 11.8542 15.6771C11.2431 15.7812 10.625 15.8333 10 15.8333C7.97226 15.8333 6.13198 15.2674 4.47921 14.1354C2.82643 13.0035 1.61115 11.4861 0.833374 9.58332C1.11115 8.8611 1.49657 8.15624 1.98962 7.46874C2.48268 6.78124 3.08337 6.12499 3.79171 5.49999L1.16671 2.87499L2.04171 1.97916L17.8125 17.75L17 18.6667ZM4.64587 6.37499C4.13198 6.74999 3.63546 7.24305 3.15629 7.85416C2.67712 8.46527 2.33337 9.04166 2.12504 9.58332C2.83337 11.125 3.89935 12.3437 5.32296 13.2396C6.74657 14.1354 8.36115 14.5833 10.1667 14.5833C10.625 14.5833 11.0764 14.5555 11.5209 14.5C11.9653 14.4444 12.2987 14.3611 12.5209 14.25L11.1875 12.9167C11.0348 12.9861 10.8473 13.0382 10.625 13.0729C10.4028 13.1076 10.1945 13.125 10 13.125C9.02782 13.125 8.19448 12.7847 7.50004 12.1042C6.8056 11.4236 6.45837 10.5833 6.45837 9.58332C6.45837 9.37499 6.47573 9.16666 6.51046 8.95832C6.54518 8.74999 6.59726 8.56249 6.66671 8.39582L4.64587 6.37499Z" fill="#373737"/>
</svg>
