<svg width="17" height="17" viewBox="0 0 17 17" fill="none" xmlns="http://www.w3.org/2000/svg">
<g clip-path="url(#clip0_340_5469)">
<path d="M16.0697 6.91168C15.0357 5.22768 12.6837 2.40234 8.5557 2.40234C4.4277 2.40234 2.0757 5.22768 1.0417 6.91168C0.72205 7.42868 0.552734 8.02451 0.552734 8.63234C0.552734 9.24018 0.72205 9.83601 1.0417 10.353C2.0757 12.037 4.4277 14.8623 8.5557 14.8623C12.6837 14.8623 15.0357 12.037 16.0697 10.353C16.3893 9.83601 16.5587 9.24018 16.5587 8.63234C16.5587 8.02451 16.3893 7.42868 16.0697 6.91168ZM14.933 9.65501C14.045 11.099 12.035 13.529 8.5557 13.529C5.07637 13.529 3.06637 11.099 2.17836 9.65501C1.98846 9.34771 1.88787 8.99359 1.88787 8.63234C1.88787 8.27109 1.98846 7.91698 2.17836 7.60968C3.06637 6.16568 5.07637 3.73568 8.5557 3.73568C12.035 3.73568 14.045 6.16301 14.933 7.60968C15.1229 7.91698 15.2235 8.27109 15.2235 8.63234C15.2235 8.99359 15.1229 9.34771 14.933 9.65501Z" fill="#667085"/>
<path d="M8.55599 5.29883C7.89672 5.29883 7.25225 5.49432 6.70409 5.8606C6.15593 6.22687 5.72868 6.74746 5.47639 7.35655C5.2241 7.96564 5.15809 8.63586 5.28671 9.28246C5.41532 9.92907 5.73279 10.523 6.19897 10.9892C6.66514 11.4554 7.25909 11.7728 7.90569 11.9014C8.55229 12.0301 9.22252 11.9641 9.8316 11.7118C10.4407 11.4595 10.9613 11.0322 11.3276 10.4841C11.6938 9.9359 11.8893 9.29143 11.8893 8.63216C11.8883 7.74843 11.5367 6.9012 10.9118 6.27631C10.287 5.65142 9.43972 5.29989 8.55599 5.29883ZM8.55599 10.6322C8.16043 10.6322 7.77375 10.5149 7.44485 10.2951C7.11595 10.0753 6.85961 9.76298 6.70823 9.39753C6.55686 9.03208 6.51725 8.62994 6.59442 8.24198C6.67159 7.85402 6.86207 7.49765 7.14178 7.21795C7.42148 6.93824 7.77785 6.74776 8.16581 6.67059C8.55377 6.59342 8.95591 6.63303 9.32136 6.7844C9.68681 6.93578 9.99917 7.19212 10.2189 7.52102C10.4387 7.84992 10.556 8.2366 10.556 8.63216C10.556 9.16259 10.3453 9.6713 9.97021 10.0464C9.59513 10.4214 9.08642 10.6322 8.55599 10.6322Z" fill="#667085"/>
</g>
<defs>
<clipPath id="clip0_340_5469">
<rect width="16" height="16" fill="white" transform="translate(0.556641 0.632812)"/>
</clipPath>
</defs>
</svg>
