<svg width="16" height="16" viewBox="0 0 16 16" fill="none" xmlns="http://www.w3.org/2000/svg">
<g clip-path="url(#clip0_962_2522)">
<path d="M15.5112 6.27128C14.9096 5.28612 14.1507 4.40613 13.2647 3.66625L15.1307 1.80028C15.3864 1.53554 15.379 1.11366 15.1143 0.857977C14.856 0.608539 14.4466 0.608539 14.1883 0.857977L12.1591 2.88988C10.9012 2.14272 9.46303 1.75327 7.99998 1.76364C3.87417 1.76364 1.52304 4.58794 0.488772 6.27131C-0.162924 7.32539 -0.162924 8.65727 0.488772 9.71138C1.09039 10.6965 1.84927 11.5765 2.73528 12.3164L0.869318 14.1824C0.604572 14.4381 0.597231 14.86 0.852918 15.1247C1.1086 15.3894 1.53051 15.3968 1.79522 15.1411C1.80078 15.1357 1.80625 15.1302 1.81162 15.1247L3.84553 13.0908C5.1019 13.8378 6.53831 14.2279 7.99998 14.219C12.1258 14.219 14.4769 11.3947 15.5112 9.71135C16.1629 8.65727 16.1629 7.32539 15.5112 6.27128ZM4.0015 7.99133C3.99772 5.78668 5.78184 3.99641 7.98649 3.99263C8.82065 3.99119 9.63431 4.25112 10.3132 4.73588L9.34552 5.70352C8.93929 5.45855 8.47437 5.32797 8.00002 5.32566C6.52781 5.32566 5.33435 6.51913 5.33435 7.99133C5.33666 8.46568 5.46724 8.93061 5.71221 9.33683L4.74457 10.3045C4.26137 9.62994 4.00153 8.82105 4.0015 7.99133ZM8.00002 11.9898C7.17029 11.9898 6.3614 11.73 5.68687 11.2468L6.65451 10.2791C7.06074 10.5241 7.52566 10.6547 8.00002 10.657C9.47222 10.657 10.6657 9.46353 10.6657 7.99133C10.6634 7.51697 10.5328 7.05205 10.2878 6.64583L11.2555 5.67819C12.5366 7.47233 12.1208 9.96541 10.3267 11.2466C9.64784 11.7313 8.83417 11.9913 8.00002 11.9898Z" fill="#D0D5DD"/>
</g>
<defs>
<clipPath id="clip0_962_2522">
<rect width="16" height="16" fill="white"/>
</clipPath>
</defs>
</svg>
