<svg width="16" height="16" viewBox="0 0 16 16" fill="none" xmlns="http://www.w3.org/2000/svg">
<path d="M8.0016 10.6653C9.4738 10.6653 10.6673 9.47185 10.6673 7.99965C10.6673 6.52744 9.4738 5.33398 8.0016 5.33398C6.5294 5.33398 5.33594 6.52744 5.33594 7.99965C5.33594 9.47185 6.5294 10.6653 8.0016 10.6653Z" fill="#D0D5DD"/>
<path d="M15.5112 6.28013C14.4776 4.59676 12.1265 1.77246 7.99998 1.77246C3.87352 1.77246 1.52239 4.59676 0.488772 6.28013C-0.162924 7.33421 -0.162924 8.66609 0.488772 9.7202C1.52239 11.4036 3.87352 14.2279 7.99998 14.2279C12.1265 14.2279 14.4776 11.4036 15.5112 9.7202C16.1629 8.66609 16.1629 7.33421 15.5112 6.28013ZM7.99998 11.9987C5.79168 11.9987 4.00147 10.2085 4.00147 8.00015C4.00147 5.79184 5.79168 4.00163 7.99998 4.00163C10.2083 4.00163 11.9985 5.79184 11.9985 8.00015C11.9963 10.2075 10.2074 11.9964 7.99998 11.9987Z" fill="#D0D5DD"/>
</svg>
