<svg width="22" height="22" viewBox="0 0 22 22" fill="none" xmlns="http://www.w3.org/2000/svg">
<path fill-rule="evenodd" clip-rule="evenodd" d="M18.5625 22C20.461 22 22 20.461 22 18.5625L22 3.4375C22 1.53904 20.461 0 18.5625 0L3.4375 0C1.53904 0 0 1.53904 0 3.4375L0 18.5625C0 20.461 1.53904 22 3.4375 22L18.5625 22ZM6.875 18.5625C7.25471 18.5625 7.5625 18.2547 7.5625 17.875L7.5625 4.125C7.5625 3.74529 7.25471 3.4375 6.875 3.4375C6.49529 3.4375 6.1875 3.74529 6.1875 4.125L6.1875 17.875C6.1875 18.2547 6.49529 18.5625 6.875 18.5625ZM15.125 10.3125C15.5047 10.3125 15.8125 10.6203 15.8125 11C15.8125 11.3797 15.5047 11.6875 15.125 11.6875L10.1872 11.6875L11.9388 13.7652C12.1836 14.0555 12.1467 14.4892 11.8564 14.734C11.5661 14.9787 11.1323 14.9418 10.8877 14.6515L8.18269 11.4432C7.96689 11.1871 7.96689 10.8129 8.18269 10.5568L10.8877 7.34855C11.1323 7.05822 11.5661 7.0213 11.8564 7.26605C12.1467 7.5108 12.1836 7.94454 11.9388 8.23481L10.1872 10.3125L15.125 10.3125Z" fill="#373737" fill-opacity="0.5"/>
</svg>
