<svg width="32" height="37" viewBox="0 0 32 37" fill="none" xmlns="http://www.w3.org/2000/svg">
<path d="M13.9127 36.67C9.90454 36.1731 6.58371 34.4257 3.95022 31.4279C1.31674 28.43 0 24.9104 0 20.8691C0 18.6828 0.430632 16.5876 1.2919 14.5835C2.15316 12.5794 3.37881 10.8321 4.96883 9.34141L7.80107 12.1736C6.5423 13.2999 5.58994 14.6084 4.94399 16.099C4.29804 17.5897 3.97507 19.1797 3.97507 20.8691C3.97507 23.7842 4.90258 26.3597 6.75762 28.5956C8.61265 30.8316 10.9977 32.198 13.9127 32.6949V36.67ZM17.8878 36.67V32.6949C20.7697 32.1649 23.1465 30.7902 25.0181 28.5708C26.8897 26.3514 27.8255 23.7842 27.8255 20.8691C27.8255 17.5565 26.6661 14.7409 24.3473 12.4221C22.0285 10.1033 19.2128 8.9439 15.9003 8.9439H15.7512L17.9375 11.1302L15.1549 13.9127L8.19858 6.95637L15.1549 0L17.9375 2.78255L15.7512 4.96883H15.9003C20.3391 4.96883 24.0988 6.50917 27.1795 9.58985C30.2602 12.6705 31.8005 16.4303 31.8005 20.8691C31.8005 24.8773 30.4838 28.3803 27.8503 31.3782C25.2168 34.3761 21.896 36.14 17.8878 36.67Z" fill="white"/>
</svg>
