<svg width="19" height="20" viewBox="0 0 19 20" fill="none" xmlns="http://www.w3.org/2000/svg">
<path d="M0.5 6.45161H3.13736V2.58065H16.3242V6.45161H18.9615V2.58065C18.9615 1.89622 18.6837 1.23982 18.1891 0.755853C17.6945 0.271889 17.0236 0 16.3242 0H3.13736C2.43789 0 1.76707 0.271889 1.27247 0.755853C0.777864 1.23982 0.5 1.89622 0.5 2.58065V6.45161Z" fill="white"/>
<path d="M11.0495 20V9.89032L13.7429 12.5258L15.6089 10.7L10.6638 5.86128C10.5413 5.74131 10.3959 5.64614 10.2358 5.58121C10.0757 5.51627 9.90413 5.48285 9.73084 5.48285C9.55754 5.48285 9.38595 5.51627 9.22586 5.58121C9.06577 5.64614 8.92034 5.74131 8.79787 5.86128L3.85281 10.7L5.71875 12.5258L8.41215 9.89032V20H11.0495Z" fill="white"/>
</svg>
