<svg width="30" height="20" viewBox="0 0 30 20" fill="none" xmlns="http://www.w3.org/2000/svg">
<path fill-rule="evenodd" clip-rule="evenodd" d="M0 14.0143C0 17.3207 2.33643 20 5.21714 20H23.5721C27.1343 19.9357 30 16.8743 30 13.1121C30 9.30857 27.0693 6.22429 23.4529 6.22429L23.1921 6.22929C22.1886 2.64571 18.6536 0 14.4479 0C9.56286 0 5.58072 3.57357 5.42215 8.035L5.21714 8.03C2.33643 8.03 0 10.7093 0 14.0143ZM13.5714 15.7136V12.1436L11.4286 13.5714L9.88786 12.075L15 7.14214L20.1557 12.0971L18.5707 13.5714L16.4286 12.1436V15.7136H13.5714Z" fill="#373737" fill-opacity="0.15"/>
</svg>
