<svg width="22" height="22" viewBox="0 0 22 22" fill="none" xmlns="http://www.w3.org/2000/svg">
<path d="M18.8571 0H3.14286C1.40721 0 0 1.40721 0 3.14286V18.8571C0 20.5928 1.40721 22 3.14286 22H18.8571C20.5928 22 22 20.5928 22 18.8571V3.14286C22 1.40721 20.5928 0 18.8571 0ZM11 2.99357C13.5905 2.99357 15.6907 5.09379 15.6907 7.68429C15.6907 10.2748 13.5905 12.375 11 12.375C8.4095 12.375 6.30929 10.2748 6.30929 7.68429C6.30929 5.09379 8.4095 2.99357 11 2.99357ZM18.8571 20.5857H3.14286C3.04071 20.5857 2.93857 20.5779 2.83643 20.5543L4.11714 17.3486C4.58857 16.1543 5.74357 15.3686 7.03214 15.3686H14.9679C16.2564 15.3686 17.4114 16.1543 17.8829 17.3486L19.1636 20.5543C19.0614 20.5779 18.9593 20.5857 18.8571 20.5857Z" fill="#373737" fill-opacity="0.5"/>
</svg>
